<svg id="visual" viewBox="0 0 1920 1080" width="1920" height="1080" xmlns="http://www.w3.org/2000/svg" xmlns:xlink="http://www.w3.org/1999/xlink" version="1.1"><rect x="0" y="0" width="1920" height="1080" fill="#001122"></rect><path d="M0 854L274 944L549 970L823 948L1097 899L1371 869L1646 948L1920 895L1920 1081L1646 1081L1371 1081L1097 1081L823 1081L549 1081L274 1081L0 1081Z" fill="#9787ff"></path><path d="M0 952L274 911L549 980L823 879L1097 979L1371 927L1646 962L1920 939L1920 1081L1646 1081L1371 1081L1097 1081L823 1081L549 1081L274 1081L0 1081Z" fill="#7f6cff"></path><path d="M0 994L274 1009L549 956L823 988L1097 977L1371 978L1646 940L1920 992L1920 1081L1646 1081L1371 1081L1097 1081L823 1081L549 1081L274 1081L0 1081Z" fill="#644fff"></path><path d="M0 1021L274 989L549 967L823 1019L1097 991L1371 978L1646 1010L1920 1034L1920 1081L1646 1081L1371 1081L1097 1081L823 1081L549 1081L274 1081L0 1081Z" fill="#5640e0"></path><path d="M0 1028L274 1038L549 1011L823 1003L1097 1040L1371 1021L1646 1006L1920 1043L1920 1081L1646 1081L1371 1081L1097 1081L823 1081L549 1081L274 1081L0 1081Z" fill="#4732c2"></path></svg>