<svg id="visual" viewBox="0 0 1920 1080" width="1920" height="1080" xmlns="http://www.w3.org/2000/svg" xmlns:xlink="http://www.w3.org/1999/xlink" version="1.1"><rect x="0" y="0" width="1920" height="1080" fill="#001122"></rect><path d="M0 287L45.7 294.7C91.3 302.3 182.7 317.7 274.2 332C365.7 346.3 457.3 359.7 548.8 341.5C640.3 323.3 731.7 273.7 823 277.3C914.3 281 1005.7 338 1097 353.5C1188.3 369 1279.7 343 1371.2 324.7C1462.7 306.3 1554.3 295.7 1645.8 296.5C1737.3 297.3 1828.7 309.7 1874.3 315.8L1920 322L1920 0L1874.3 0C1828.7 0 1737.3 0 1645.8 0C1554.3 0 1462.7 0 1371.2 0C1279.7 0 1188.3 0 1097 0C1005.7 0 914.3 0 823 0C731.7 0 640.3 0 548.8 0C457.3 0 365.7 0 274.2 0C182.7 0 91.3 0 45.7 0L0 0Z" fill="#9787ff"></path><path d="M0 217L45.7 200.7C91.3 184.3 182.7 151.7 274.2 161.3C365.7 171 457.3 223 548.8 227.2C640.3 231.3 731.7 187.7 823 168C914.3 148.3 1005.7 152.7 1097 167C1188.3 181.3 1279.7 205.7 1371.2 224.3C1462.7 243 1554.3 256 1645.8 261.7C1737.3 267.3 1828.7 265.7 1874.3 264.8L1920 264L1920 0L1874.3 0C1828.7 0 1737.3 0 1645.8 0C1554.3 0 1462.7 0 1371.2 0C1279.7 0 1188.3 0 1097 0C1005.7 0 914.3 0 823 0C731.7 0 640.3 0 548.8 0C457.3 0 365.7 0 274.2 0C182.7 0 91.3 0 45.7 0L0 0Z" fill="#7f6cff"></path><path d="M0 141L45.7 137.7C91.3 134.3 182.7 127.7 274.2 132.2C365.7 136.7 457.3 152.3 548.8 156.5C640.3 160.7 731.7 153.3 823 141.8C914.3 130.3 1005.7 114.7 1097 115.7C1188.3 116.7 1279.7 134.3 1371.2 161C1462.7 187.7 1554.3 223.3 1645.8 240.7C1737.3 258 1828.7 257 1874.3 256.5L1920 256L1920 0L1874.3 0C1828.7 0 1737.3 0 1645.8 0C1554.3 0 1462.7 0 1371.2 0C1279.7 0 1188.3 0 1097 0C1005.7 0 914.3 0 823 0C731.7 0 640.3 0 548.8 0C457.3 0 365.7 0 274.2 0C182.7 0 91.3 0 45.7 0L0 0Z" fill="#644fff"></path><path d="M0 117L45.7 111.7C91.3 106.3 182.7 95.7 274.2 90.7C365.7 85.7 457.3 86.3 548.8 100.7C640.3 115 731.7 143 823 158.5C914.3 174 1005.7 177 1097 168.5C1188.3 160 1279.7 140 1371.2 124.8C1462.7 109.7 1554.3 99.3 1645.8 108.5C1737.3 117.7 1828.7 146.3 1874.3 160.7L1920 175L1920 0L1874.3 0C1828.7 0 1737.3 0 1645.8 0C1554.3 0 1462.7 0 1371.2 0C1279.7 0 1188.3 0 1097 0C1005.7 0 914.3 0 823 0C731.7 0 640.3 0 548.8 0C457.3 0 365.7 0 274.2 0C182.7 0 91.3 0 45.7 0L0 0Z" fill="#5640e0"></path><path d="M0 125L45.7 124.7C91.3 124.3 182.7 123.7 274.2 120.8C365.7 118 457.3 113 548.8 100.3C640.3 87.7 731.7 67.3 823 68.7C914.3 70 1005.7 93 1097 99.7C1188.3 106.3 1279.7 96.7 1371.2 89.7C1462.7 82.7 1554.3 78.3 1645.8 79.2C1737.3 80 1828.7 86 1874.3 89L1920 92L1920 0L1874.3 0C1828.7 0 1737.3 0 1645.8 0C1554.3 0 1462.7 0 1371.2 0C1279.7 0 1188.3 0 1097 0C1005.7 0 914.3 0 823 0C731.7 0 640.3 0 548.8 0C457.3 0 365.7 0 274.2 0C182.7 0 91.3 0 45.7 0L0 0Z" fill="#4732c2"></path></svg>