<svg id="visual" viewBox="0 0 1920 1080" width="1920" height="1080" xmlns="http://www.w3.org/2000/svg" xmlns:xlink="http://www.w3.org/1999/xlink" version="1.1"><path d="M0 1000L45.7 1001.2C91.3 1002.3 182.7 1004.7 274.2 997.2C365.7 989.7 457.3 972.3 548.8 961.5C640.3 950.7 731.7 946.3 823 948.7C914.3 951 1005.7 960 1097 959.3C1188.3 958.7 1279.7 948.3 1371.2 942C1462.7 935.7 1554.3 933.3 1645.8 946C1737.3 958.7 1828.7 986.3 1874.3 1000.2L1920 1014L1920 1081L1874.3 1081C1828.7 1081 1737.3 1081 1645.8 1081C1554.3 1081 1462.7 1081 1371.2 1081C1279.7 1081 1188.3 1081 1097 1081C1005.7 1081 914.3 1081 823 1081C731.7 1081 640.3 1081 548.8 1081C457.3 1081 365.7 1081 274.2 1081C182.7 1081 91.3 1081 45.7 1081L0 1081Z" fill="#9787ff"></path><path d="M0 1006L45.7 998C91.3 990 182.7 974 274.2 977.8C365.7 981.7 457.3 1005.3 548.8 1015C640.3 1024.7 731.7 1020.3 823 1018.2C914.3 1016 1005.7 1016 1097 1017.2C1188.3 1018.3 1279.7 1020.7 1371.2 1011C1462.7 1001.3 1554.3 979.7 1645.8 970.2C1737.3 960.7 1828.7 963.3 1874.3 964.7L1920 966L1920 1081L1874.3 1081C1828.7 1081 1737.3 1081 1645.8 1081C1554.3 1081 1462.7 1081 1371.2 1081C1279.7 1081 1188.3 1081 1097 1081C1005.7 1081 914.3 1081 823 1081C731.7 1081 640.3 1081 548.8 1081C457.3 1081 365.7 1081 274.2 1081C182.7 1081 91.3 1081 45.7 1081L0 1081Z" fill="#7f6cff"></path><path d="M0 997L45.7 1002.3C91.3 1007.7 182.7 1018.3 274.2 1024.8C365.7 1031.3 457.3 1033.7 548.8 1027.8C640.3 1022 731.7 1008 823 1000.5C914.3 993 1005.7 992 1097 989.3C1188.3 986.7 1279.7 982.3 1371.2 990.5C1462.7 998.7 1554.3 1019.3 1645.8 1024.3C1737.3 1029.3 1828.7 1018.7 1874.3 1013.3L1920 1008L1920 1081L1874.3 1081C1828.7 1081 1737.3 1081 1645.8 1081C1554.3 1081 1462.7 1081 1371.2 1081C1279.7 1081 1188.3 1081 1097 1081C1005.7 1081 914.3 1081 823 1081C731.7 1081 640.3 1081 548.8 1081C457.3 1081 365.7 1081 274.2 1081C182.7 1081 91.3 1081 45.7 1081L0 1081Z" fill="#644fff"></path><path d="M0 1016L45.7 1016.8C91.3 1017.7 182.7 1019.3 274.2 1024.2C365.7 1029 457.3 1037 548.8 1039.2C640.3 1041.3 731.7 1037.7 823 1035.3C914.3 1033 1005.7 1032 1097 1033.8C1188.3 1035.7 1279.7 1040.3 1371.2 1037.3C1462.7 1034.3 1554.3 1023.7 1645.8 1020.2C1737.3 1016.7 1828.7 1020.3 1874.3 1022.2L1920 1024L1920 1081L1874.3 1081C1828.7 1081 1737.3 1081 1645.8 1081C1554.3 1081 1462.7 1081 1371.2 1081C1279.7 1081 1188.3 1081 1097 1081C1005.7 1081 914.3 1081 823 1081C731.7 1081 640.3 1081 548.8 1081C457.3 1081 365.7 1081 274.2 1081C182.7 1081 91.3 1081 45.7 1081L0 1081Z" fill="#5640e0"></path><path d="M0 1027L45.7 1028.3C91.3 1029.7 182.7 1032.3 274.2 1037.5C365.7 1042.7 457.3 1050.3 548.8 1052.8C640.3 1055.3 731.7 1052.7 823 1047.8C914.3 1043 1005.7 1036 1097 1033.5C1188.3 1031 1279.7 1033 1371.2 1035.7C1462.7 1038.3 1554.3 1041.7 1645.8 1043.8C1737.3 1046 1828.7 1047 1874.3 1047.5L1920 1048L1920 1081L1874.3 1081C1828.7 1081 1737.3 1081 1645.8 1081C1554.3 1081 1462.7 1081 1371.2 1081C1279.7 1081 1188.3 1081 1097 1081C1005.7 1081 914.3 1081 823 1081C731.7 1081 640.3 1081 548.8 1081C457.3 1081 365.7 1081 274.2 1081C182.7 1081 91.3 1081 45.7 1081L0 1081Z" fill="#4732c2"></path></svg>