<svg id="visual" viewBox="0 0 1920 1080" width="1920" height="1080" xmlns="http://www.w3.org/2000/svg" xmlns:xlink="http://www.w3.org/1999/xlink" version="1.1"><rect x="0" y="0" width="1920" height="1080" fill="#001122"></rect><path d="M0 359L45.7 362C91.3 365 182.7 371 274.2 350.8C365.7 330.7 457.3 284.3 548.8 244.8C640.3 205.3 731.7 172.7 823 176C914.3 179.3 1005.7 218.7 1097 249.5C1188.3 280.3 1279.7 302.7 1371.2 311.7C1462.7 320.7 1554.3 316.3 1645.8 328.2C1737.3 340 1828.7 368 1874.3 382L1920 396L1920 0L1874.3 0C1828.7 0 1737.3 0 1645.8 0C1554.3 0 1462.7 0 1371.2 0C1279.7 0 1188.3 0 1097 0C1005.7 0 914.3 0 823 0C731.7 0 640.3 0 548.8 0C457.3 0 365.7 0 274.2 0C182.7 0 91.3 0 45.7 0L0 0Z" fill="#9787ff"></path><path d="M0 119L45.7 126C91.3 133 182.7 147 274.2 177.2C365.7 207.3 457.3 253.7 548.8 274.7C640.3 295.7 731.7 291.3 823 270.3C914.3 249.3 1005.7 211.7 1097 218.8C1188.3 226 1279.7 278 1371.2 292.5C1462.7 307 1554.3 284 1645.8 265.7C1737.3 247.3 1828.7 233.7 1874.3 226.8L1920 220L1920 0L1874.3 0C1828.7 0 1737.3 0 1645.8 0C1554.3 0 1462.7 0 1371.2 0C1279.7 0 1188.3 0 1097 0C1005.7 0 914.3 0 823 0C731.7 0 640.3 0 548.8 0C457.3 0 365.7 0 274.2 0C182.7 0 91.3 0 45.7 0L0 0Z" fill="#7f6cff"></path><path d="M0 168L45.7 182.2C91.3 196.3 182.7 224.7 274.2 223.5C365.7 222.3 457.3 191.7 548.8 187.2C640.3 182.7 731.7 204.3 823 202.2C914.3 200 1005.7 174 1097 167.7C1188.3 161.3 1279.7 174.7 1371.2 184.7C1462.7 194.7 1554.3 201.3 1645.8 188.2C1737.3 175 1828.7 142 1874.3 125.5L1920 109L1920 0L1874.3 0C1828.7 0 1737.3 0 1645.8 0C1554.3 0 1462.7 0 1371.2 0C1279.7 0 1188.3 0 1097 0C1005.7 0 914.3 0 823 0C731.7 0 640.3 0 548.8 0C457.3 0 365.7 0 274.2 0C182.7 0 91.3 0 45.7 0L0 0Z" fill="#644fff"></path><path d="M0 170L45.7 159.8C91.3 149.7 182.7 129.3 274.2 127.5C365.7 125.7 457.3 142.3 548.8 157.7C640.3 173 731.7 187 823 181.3C914.3 175.7 1005.7 150.3 1097 147.5C1188.3 144.7 1279.7 164.3 1371.2 162.5C1462.7 160.7 1554.3 137.3 1645.8 132.5C1737.3 127.7 1828.7 141.3 1874.3 148.2L1920 155L1920 0L1874.3 0C1828.7 0 1737.3 0 1645.8 0C1554.3 0 1462.7 0 1371.2 0C1279.7 0 1188.3 0 1097 0C1005.7 0 914.3 0 823 0C731.7 0 640.3 0 548.8 0C457.3 0 365.7 0 274.2 0C182.7 0 91.3 0 45.7 0L0 0Z" fill="#5640e0"></path><path d="M0 131L45.7 123.2C91.3 115.3 182.7 99.7 274.2 95C365.7 90.3 457.3 96.7 548.8 103C640.3 109.3 731.7 115.7 823 113.7C914.3 111.7 1005.7 101.3 1097 97.8C1188.3 94.3 1279.7 97.7 1371.2 97.8C1462.7 98 1554.3 95 1645.8 98.2C1737.3 101.3 1828.7 110.7 1874.3 115.3L1920 120L1920 0L1874.3 0C1828.7 0 1737.3 0 1645.8 0C1554.3 0 1462.7 0 1371.2 0C1279.7 0 1188.3 0 1097 0C1005.7 0 914.3 0 823 0C731.7 0 640.3 0 548.8 0C457.3 0 365.7 0 274.2 0C182.7 0 91.3 0 45.7 0L0 0Z" fill="#4732c2"></path></svg>